<?xml version="1.0" standalone="no"?>
<!DOCTYPE svg PUBLIC "-//W3C//DTD SVG 20010904//EN"
 "http://www.w3.org/TR/2001/REC-SVG-20010904/DTD/svg10.dtd">
<svg version="1.0" xmlns="http://www.w3.org/2000/svg"
 width="483.000000pt" height="502.000000pt" viewBox="0 0 483.000000 502.000000"
 preserveAspectRatio="xMidYMid meet">

<g transform="translate(0.000000,502.000000) scale(0.100000,-0.100000)"
fill="#000000" stroke="none">
<path d="M3580 4358 c0 -20 6 -41 13 -45 7 -4 19 -23 26 -41 13 -31 15 -32 32
-16 25 22 24 26 -8 63 -16 17 -36 41 -45 53 l-17 23 -1 -37z"/>
<path d="M1135 4339 c-4 -6 -3 -15 3 -21 6 -6 11 -4 15 6 7 18 -9 31 -18 15z"/>
<path d="M1330 4235 c0 -10 7 -15 18 -13 21 4 19 22 -2 26 -10 2 -16 -3 -16
-13z"/>
<path d="M978 4049 c-16 -9 -16 -11 0 -29 21 -25 38 -25 52 0 8 15 6 21 -9 30
-23 12 -22 12 -43 -1z"/>
<path d="M3770 4036 c0 -23 18 -29 40 -13 18 13 19 15 5 21 -27 10 -45 7 -45
-8z"/>
<path d="M2700 4004 c0 -13 13 -42 29 -64 l28 -39 12 25 c22 48 14 70 -29 87
-40 15 -40 15 -40 -9z"/>
<path d="M435 3950 c-6 -10 11 -50 22 -50 12 0 31 34 26 47 -6 15 -39 17 -48
3z"/>
<path d="M3613 3894 c-3 -9 1 -29 8 -46 l14 -29 28 21 c44 35 32 70 -24 70
-11 0 -22 -7 -26 -16z"/>
<path d="M2455 3891 c-3 -5 2 -17 12 -26 13 -14 14 -21 5 -36 -21 -33 -15 -49
18 -49 29 0 30 2 30 44 0 35 -5 47 -25 60 -28 19 -32 19 -40 7z"/>
<path d="M921 3867 c-34 -17 -31 -32 8 -35 42 -4 57 9 33 31 -14 13 -22 14
-41 4z"/>
<path d="M1016 3851 c-3 -4 3 -16 13 -25 15 -13 24 -15 47 -6 62 23 60 22 39
30 -27 11 -93 12 -99 1z"/>
<path d="M2233 3828 c-35 -21 -37 -28 -27 -102 6 -38 10 -46 28 -46 37 0 50
14 36 39 -9 17 -9 26 1 37 13 16 15 73 2 84 -4 4 -23 -2 -40 -12z"/>
<path d="M2102 3780 c7 -11 16 -20 20 -20 5 0 8 9 8 20 0 13 -7 20 -20 20 -18
0 -19 -2 -8 -20z"/>
<path d="M2534 3755 c-4 -9 0 -24 10 -33 15 -15 18 -15 26 -2 6 8 9 22 7 30
-3 21 -36 25 -43 5z"/>
<path d="M1130 3735 c-14 -38 -13 -45 10 -45 15 0 20 7 20 29 0 40 -18 49 -30
16z"/>
<path d="M3764 3702 c-8 -5 -6 -15 6 -34 l16 -27 28 26 c22 20 25 28 14 34
-16 11 -49 11 -64 1z"/>
<path d="M1031 3657 c-9 -12 -8 -16 3 -20 19 -7 32 11 19 24 -6 6 -14 5 -22
-4z"/>
<path d="M253 3648 c2 -7 9 -13 15 -12 59 5 58 5 37 14 -30 13 -57 12 -52 -2z"/>
<path d="M3205 3650 c-11 -5 -14 -9 -7 -9 7 -1 20 -17 28 -37 14 -33 17 -35
31 -21 12 11 13 22 6 44 -10 30 -27 37 -58 23z"/>
<path d="M1270 3605 c-9 -11 -7 -19 14 -40 23 -23 66 -35 66 -17 0 4 3 17 6
28 5 17 -1 24 -27 33 -41 14 -44 14 -59 -4z"/>
<path d="M1416 3601 c-8 -12 13 -18 42 -13 18 4 20 7 10 13 -17 11 -45 11 -52
0z"/>
<path d="M3372 3601 c-10 -6 -10 -10 2 -20 10 -9 16 -9 21 -1 10 16 -7 31 -23
21z"/>
<path d="M1514 3506 c-19 -15 -19 -15 3 -37 l22 -22 7 27 c9 36 -6 50 -32 32z"/>
<path d="M3410 3460 c-12 -7 -11 -12 5 -30 l18 -20 23 21 c13 12 21 26 18 30
-7 12 -45 11 -64 -1z"/>
<path d="M1430 3444 c0 -14 3 -14 15 -4 8 7 15 14 15 16 0 2 -7 4 -15 4 -8 0
-15 -7 -15 -16z"/>
<path d="M650 3431 c0 -22 25 -51 44 -51 8 0 19 7 26 15 10 12 6 18 -22 35
-41 25 -48 25 -48 1z"/>
<path d="M3823 3363 c-6 -5 -9 -20 -6 -36 5 -25 9 -28 42 -25 33 3 36 6 36 33
0 26 -4 30 -30 33 -16 1 -35 -1 -42 -5z"/>
<path d="M2850 3325 c0 -22 4 -34 10 -30 6 3 10 17 10 30 0 13 -4 27 -10 30
-6 4 -10 -8 -10 -30z"/>
<path d="M1579 3323 c-3 -38 3 -59 21 -77 21 -21 60 -14 60 12 -1 21 -23 52
-38 52 -6 0 -18 7 -26 16 -15 14 -16 14 -17 -3z"/>
<path d="M212 3310 c0 -14 2 -19 5 -12 2 6 2 18 0 25 -3 6 -5 1 -5 -13z"/>
<path d="M890 3249 c0 -7 -7 -21 -17 -31 -15 -17 -15 -18 10 -18 22 0 27 5 27
24 0 14 -4 28 -10 31 -5 3 -10 1 -10 -6z"/>
<path d="M1763 3253 c9 -2 23 -2 30 0 6 3 -1 5 -18 5 -16 0 -22 -2 -12 -5z"/>
<path d="M4060 3216 c-8 -10 -7 -15 2 -18 16 -6 38 1 38 12 0 15 -28 19 -40 6z"/>
<path d="M1820 3172 c0 -18 -12 -29 -55 -48 -45 -21 -55 -30 -55 -50 0 -31 34
-33 50 -3 9 16 18 19 39 14 43 -9 56 13 37 67 -10 30 -15 36 -16 20z"/>
<path d="M2950 3105 c0 -16 27 -19 79 -9 50 10 36 24 -24 24 -42 0 -55 -3 -55
-15z"/>
<path d="M984 3034 c-7 -29 7 -44 43 -44 27 0 37 14 29 46 -5 19 -13 24 -36
24 -24 0 -31 -5 -36 -26z"/>
<path d="M2203 2988 c-8 -17 -7 -26 3 -36 19 -17 24 -15 24 11 0 37 -15 51
-27 25z"/>
<path d="M3580 2969 c0 -17 4 -20 23 -15 12 3 33 6 47 7 22 0 21 2 -10 14 -49
19 -60 18 -60 -6z"/>
<path d="M3435 2969 c-9 -13 12 -19 36 -11 23 9 23 9 -4 14 -15 3 -30 2 -32
-3z"/>
<path d="M2328 2963 c12 -2 30 -2 40 0 9 3 -1 5 -23 4 -22 0 -30 -2 -17 -4z"/>
<path d="M1230 2875 c-8 -10 -8 -19 0 -34 10 -20 12 -20 36 -5 28 19 27 34 -3
45 -14 5 -25 3 -33 -6z"/>
<path d="M545 2871 c-9 -15 12 -22 40 -15 20 5 23 9 13 15 -17 12 -45 11 -53
0z"/>
<path d="M3670 2863 c0 -5 4 -13 8 -20 6 -9 11 -7 20 7 11 17 10 20 -8 20 -11
0 -20 -3 -20 -7z"/>
<path d="M2390 2829 l-25 -19 33 0 c21 0 32 5 32 14 0 24 -14 26 -40 5z"/>
<path d="M4105 2778 c-11 -6 -24 -17 -28 -25 -4 -7 -22 -13 -40 -14 -18 -1
-43 -4 -57 -8 -21 -6 -25 -12 -22 -42 5 -45 19 -59 28 -25 5 21 15 29 50 38
26 7 44 19 47 30 4 12 15 18 35 18 35 0 52 18 31 31 -18 11 -20 11 -44 -3z"/>
<path d="M1367 2713 c-11 -11 -8 -48 5 -61 15 -15 30 -15 52 1 16 12 16 14 -4
40 -21 26 -40 34 -53 20z"/>
<path d="M3036 2635 c-6 -15 3 -75 11 -75 9 0 73 53 73 61 0 7 -9 11 -61 25
-9 3 -19 -2 -23 -11z"/>
<path d="M3237 2469 c8 -8 16 -8 30 0 16 9 14 10 -11 11 -22 0 -27 -3 -19 -11z"/>
<path d="M982 2388 c-7 -7 -12 -24 -12 -38 0 -35 18 -52 42 -39 11 6 18 21 18
39 0 34 -29 57 -48 38z"/>
<path d="M1810 2358 c0 -39 13 -63 29 -54 22 14 10 86 -15 86 -9 0 -14 -11
-14 -32z"/>
<path d="M1135 2330 c-3 -5 -1 -10 4 -10 6 0 11 5 11 10 0 6 -2 10 -4 10 -3 0
-8 -4 -11 -10z"/>
<path d="M3822 2298 c0 -24 -1 -50 -3 -58 -2 -8 3 -15 11 -15 11 0 14 10 12
41 -2 23 1 45 7 49 14 8 4 25 -14 25 -11 0 -14 -12 -13 -42z"/>
<path d="M3693 2323 c9 -2 25 -2 35 0 9 3 1 5 -18 5 -19 0 -27 -2 -17 -5z"/>
<path d="M2780 2292 c-47 -7 -45 -22 3 -22 26 0 47 4 47 9 0 12 -20 18 -50 13z"/>
<path d="M3626 2264 c-4 -15 -2 -32 3 -37 8 -8 11 0 11 26 0 44 -5 47 -14 11z"/>
<path d="M2056 2232 c-2 -4 2 -18 10 -32 l13 -25 1 33 c0 29 -12 43 -24 24z"/>
<path d="M1414 2042 c-8 -5 -7 -16 3 -39 21 -51 49 -41 35 12 -9 31 -20 39
-38 27z"/>
<path d="M2505 1991 c-3 -5 -1 -12 5 -16 5 -3 10 1 10 9 0 18 -6 21 -15 7z"/>
<path d="M2502 1903 c-8 -15 -9 -24 -1 -28 15 -10 21 0 17 27 l-3 23 -13 -22z"/>
<path d="M3316 1891 c-3 -5 0 -11 7 -14 19 -7 68 4 61 14 -7 12 -61 12 -68 0z"/>
<path d="M3625 1569 c-8 -25 4 -39 27 -30 15 5 15 8 -2 29 l-19 22 -6 -21z"/>
<path d="M1842 1509 c4 -29 33 -48 49 -32 18 18 1 53 -27 53 -20 0 -25 -4 -22
-21z"/>
<path d="M2895 1500 c-3 -5 -1 -10 4 -10 6 0 11 5 11 10 0 6 -2 10 -4 10 -3 0
-8 -4 -11 -10z"/>
<path d="M2981 1406 c-9 -10 -8 -15 2 -19 19 -7 41 8 33 22 -10 15 -21 14 -35
-3z"/>
<path d="M1255 1280 c-25 -26 -27 -32 -15 -40 18 -12 57 -13 63 -2 3 4 8 22
12 40 6 27 4 32 -12 32 -11 0 -32 -14 -48 -30z"/>
<path d="M2227 1153 c14 -3 25 -14 29 -29 9 -34 24 -30 24 6 0 28 -2 30 -37
29 -24 -1 -29 -3 -16 -6z"/>
<path d="M2540 1010 c0 -5 7 -10 15 -10 8 0 15 5 15 10 0 6 -7 10 -15 10 -8 0
-15 -4 -15 -10z"/>
<path d="M1716 924 c-7 -18 3 -64 13 -64 17 0 53 50 48 64 -8 21 -53 21 -61 0z"/>
<path d="M1571 821 c-19 -12 4 -24 30 -16 17 6 19 9 8 16 -17 11 -21 11 -38 0z"/>
<path d="M2120 111 c0 -20 7 -34 19 -41 34 -18 42 -12 39 28 -3 32 -7 37 -30
40 -25 3 -28 0 -28 -27z"/>
<path d="M2600 35 c0 -8 5 -15 10 -15 6 0 10 7 10 15 0 8 -4 15 -10 15 -5 0
-10 -7 -10 -15z"/>
</g>
</svg>
