<svg width="502" height="421" viewBox="0 0 502 421" fill="none" xmlns="http://www.w3.org/2000/svg">
<path d="M392.93 166.949C388.092 173.395 380.219 187.441 376.475 194.609C367.868 211.084 358.393 226.99 349.087 243.065C341.404 256.334 334.161 269.982 326.043 282.973C325.775 283.402 325.524 283.854 325.207 284.236C324.487 285.101 326.285 282.201 326.857 281.203C330.176 275.405 333.5 269.559 337.088 263.941C340.961 257.877 345.122 251.881 349.677 246.487C352.591 243.036 356.104 239.171 359.767 237.906C367.172 235.348 361.902 249.148 360.191 253.612C358.408 258.264 356.304 262.793 354.193 267.343C353.137 269.619 351.496 272.49 351.045 274.912C350.326 278.776 355.643 274.361 356.836 273.355" stroke="black" stroke-width="5"/>
<path d="M393.384 165.847C391.616 169.032 389.847 170.269 393.384 165.847ZM393.384 165.847C398.834 156.035 396.89 175.813 395.153 188.839C393.417 201.866 380.855 208.185 369.095 213.654C361.712 217.088 353.507 218.994 345.496 220.336C333.035 222.422 320.812 223.19 308.36 220.395C299.967 218.512 292.012 215.361 283.822 212.802C272.315 209.207 260.801 207.031 248.696 207.028C224.99 207.021 202.354 213.274 179.987 220.12" stroke="black" stroke-width="5"/>
<path d="M256.187 216.624C263.064 218.402 270.259 219.516 277.005 221.797C279.848 222.759 282.724 223.563 285.56 224.539C288.275 225.473 291.387 225.187 294.007 226.289C299.072 228.419 306.179 229.515 311.63 229.382C318.174 229.222 324.698 230.477 331.305 229.895C340.452 229.091 349.354 227.487 358.416 225.994C366.352 224.688 373.681 220.416 381.389 218.291C393.203 215.034 406.56 214.966 418.695 215.464C436.577 216.199 452.888 223.54 469.894 228.09" stroke="black" stroke-width="5"/>
<path d="M473.26 144.463C473.265 143.765 473.221 140.128 472.913 140.604C461.67 157.979 449.763 174.765 436.906 191.187C419.91 212.897 394.424 234.21 391.69 263.661C391.623 264.377 390.739 279.608 394.055 278.939C397.172 278.309 400.862 279.53 401.415 276.744" stroke="black" stroke-width="5"/>
<path d="M379.483 241.595C378.485 241.888 377.831 241.943 376.864 243.098C373.943 246.588 370.762 252.372 371.68 255.83C372.62 259.369 377.637 259.359 381.264 258.093C387.928 255.767 390.171 243.346 388.459 239.296C387.839 237.828 386.908 237.486 385.043 238.259C377.655 241.325 370.261 249.605 365.685 257.186C359.318 267.737 360.54 278.355 369.401 279.536C375.424 280.339 385.255 276.286 390.641 268.942" stroke="black" stroke-width="5"/>
<path d="M297.057 247.316C297.241 247.107 298.738 245.211 298.091 245.216C293.254 245.25 286.333 256.138 283.992 261.101C279.716 270.164 278.299 281.673 285.794 283.485C290.811 284.697 297.004 280.323 301.016 274.04C305.769 266.596 309.546 256.276 307.739 248.944C306.612 244.373 302.78 238.124 297.631 243.187C292.065 248.659 287.356 257.675 283.349 264.799C281.626 267.863 279.986 270.96 278.451 274.131" stroke="black" stroke-width="5"/>
<path d="M256.232 254.223C260.159 255.178 264.752 247.665 263.758 244.728C262.504 241.024 255.954 242.328 252.303 244.177C247.952 246.379 243.918 250.253 241.057 254.131C234.852 262.539 230.223 273.791 234.684 281.028C237.524 285.635 245.192 281.676 250.181 278.831" stroke="black" stroke-width="5"/>
<path d="M331.182 254.223C335.109 255.178 339.702 247.664 338.708 244.728C337.454 241.024 330.904 242.328 327.253 244.177C322.902 246.379 318.868 250.253 316.007 254.131C309.802 262.539 305.173 273.791 309.634 281.028C312.474 285.635 320.142 281.676 325.131 278.831" stroke="black" stroke-width="5"/>
<path d="M270.692 243.07C272.297 244.117 271.684 245.874 272.858 241.474C273.034 240.814 271.988 244.321 271.748 244.99C269.766 250.539 266.766 255.604 264.584 261.084C261.543 268.723 257.927 275.982 254.307 283.357C253.963 284.059 252.959 286.138 253.452 285.536C254.621 284.107 255.48 281.749 256.281 280.162C259.986 272.816 263.868 265.546 267.761 258.297C268.918 256.143 273.062 246.336 276.33 249.133C278.707 251.167 280.575 255.976 284.251 252.536C287.035 249.931 289.355 246.548 291.838 243.619" stroke="black" stroke-width="5"/>
<path d="M123.64 110.349C117.838 110.78 111.685 111.296 106.153 113.243C98.5786 115.911 91.7379 120.714 85.9436 126.244C71.8845 139.662 67.2319 162.894 79.2869 179.048C89.4106 192.613 104.686 199.116 121.189 194.264C137.113 189.582 147.379 172.056 145.014 155.678C140.704 125.833 91.4019 136.254 85.508 160.224C81.6991 175.715 93.1779 191.96 103.959 201.706C110.104 207.261 117.504 211.989 125.605 213.994C134.576 216.214 143.672 214.79 152.343 211.926C167.633 206.877 179.063 194.664 185.755 180.167C192.462 165.634 197.592 147.395 190.076 132.264C187.417 126.913 183.353 121.05 176.915 123.715C173.538 125.113 170.834 127.135 168.17 129.625C162.672 134.763 157.162 139.998 152.333 145.789C144.716 154.924 139.227 165.233 133.652 175.698C125.551 190.906 116.895 205.79 108.422 220.79C98.4244 238.491 88.6955 256.341 78.7247 274.057C70.0589 289.453 61.009 304.566 53.6913 320.68C51.8769 324.676 50.1891 328.716 48.5915 332.802C48.3428 333.438 48.0701 334.519 47.5772 335.096C47.2014 335.536 47.0856 334.01 47.0795 333.797C47.0171 331.633 48.18 329.262 48.8422 327.262C52.0998 317.425 56.7362 308.354 61.6095 299.227C82.5553 260 105.472 220.764 135.947 188.185C148.707 174.544 162.343 160.814 177.616 150.004C182.704 146.403 188.11 143.207 193.704 140.475C196.522 139.098 202.733 135.492 206.21 136.782C210.682 138.442 198.391 154.998 197.484 156.381C187.353 171.836 177.179 187.264 167.022 202.701C154.045 222.423 140.794 241.96 127.906 261.742C118.919 275.537 108.776 289.787 102.652 305.214C99.2423 313.803 108.9 303.244 110.143 301.705C124.223 284.278 135.648 264.384 147.858 245.639C164.782 219.658 181.231 193.157 200.16 168.579C206.66 160.138 213.407 151.801 220.962 144.281C224.861 140.399 230.605 134.217 236.261 132.778C239.1 132.055 237.435 135.858 237.058 136.675C234.705 141.78 231.064 146.401 227.838 150.946C214.478 169.765 201.363 188.704 188.778 208.061C176.95 226.251 165.037 244.637 155.665 264.264C153.741 268.294 144.701 284.534 151.564 288.264C155.208 290.245 159.944 287.814 163.064 285.898C168.64 282.473 172.578 277.212 176.469 272.041C181.62 265.197 186.867 258.341 191.734 251.289C192.107 250.749 196.394 243.223 194.119 246.549C191.457 250.441 178.165 274.542 190.108 275.043C195.739 275.279 201.526 268.423 204.4 264.369C208.658 258.362 212.931 251.522 215.435 244.532C219.33 233.66 203.487 264.335 198.585 274.79C190.623 291.77 181.847 308.482 172.146 324.531C164.767 336.74 155.477 350.099 143.677 358.399C138.49 362.047 127.649 366.685 124.92 357.655C121.919 347.722 127.7 332.863 134.914 325.945C142.023 319.129 150.344 323.578 155.501 330.18" stroke="black" stroke-width="5"/>
</svg>